<svg width="30" height="23" viewBox="0 0 30 23" fill="none" xmlns="http://www.w3.org/2000/svg">
<g clip-path="url(#clip0_439_164)">
<path fill-rule="evenodd" clip-rule="evenodd" d="M0 0H42.75V1.73147H0V0ZM0 3.46289H42.75V5.19436H0V3.46289ZM0 6.92138H42.75V8.6572H0V6.92138ZM0 10.3843H42.75V12.1157H0V10.3843ZM0 13.8472H42.75V15.5786H0V13.8472ZM0 17.3056H42.75V19.0371H0V17.3056ZM0 20.7685H42.75V22.5H0V20.7685Z" fill="#BD3D44"/>
<path fill-rule="evenodd" clip-rule="evenodd" d="M0 1.73145H42.75V3.46287H0V1.73145ZM0 5.19429H42.75V6.92135H0V5.19429ZM0 8.65282H42.75V10.3842H0V8.65282ZM0 12.1157H42.75V13.8471H0V12.1157ZM0 15.5786H42.75V17.31H0V15.5786ZM0 19.0371H42.75V20.7686H0V19.0371Z" fill="white"/>
<path fill-rule="evenodd" clip-rule="evenodd" d="M0 0H17.0991V12.1157H0V0Z" fill="#192F5D"/>
<path fill-rule="evenodd" clip-rule="evenodd" d="M1.42384 0.518555L1.58204 0.997477H2.08304L1.67869 1.29195L1.83254 1.77532L1.42384 1.47649L1.01954 1.77091L1.17334 1.29195L0.764679 0.997477H1.27444L1.42384 0.518555ZM4.2759 0.518555L4.42969 0.997477H4.93505L4.52635 1.29195L4.68019 1.77532L4.2759 1.47649L3.86719 1.77091L4.02099 1.29195L3.61669 0.997477H4.11769L4.2759 0.518555ZM7.12355 0.518555L7.28176 0.997523H7.77835L7.37405 1.29199L7.5278 1.77537L7.11915 1.47654L6.71485 1.77096L6.86865 1.29199L6.45994 0.997523H6.96535L7.12355 0.518555ZM9.97562 0.518555L10.1294 0.997523H10.6348L10.2261 1.29199L10.3843 1.77537L9.97557 1.47654L9.56691 1.77096L9.72512 1.29199L9.31641 0.997523H9.81741L9.97562 0.518555ZM12.8233 0.518555L12.9815 0.997523H13.4824L13.0781 1.29199L13.2319 1.77537L12.8232 1.47654L12.4189 1.77096L12.5728 1.29199L12.1685 0.997523H12.6694L12.8233 0.518555ZM15.6753 0.518555L15.8291 0.997523H16.3345L15.9258 1.29199L16.084 1.77537L15.6753 1.47654L15.2666 1.77096L15.4248 1.29199L15.0161 0.997523H15.5215L15.6753 0.518555ZM2.85207 1.73135L3.00587 2.21041H3.51123L3.10252 2.50479L3.25196 2.98385L2.85643 2.68938L2.44777 2.9838L2.59276 2.50484L2.19727 2.21037H2.69827L2.85207 1.73135ZM5.69973 1.73135L5.85793 2.21041H6.35888L5.95018 2.50479L6.10843 2.98385L5.69968 2.68938L5.29102 2.9838L5.44923 2.50484L5.04052 2.21037H5.54588L5.69973 1.73135ZM8.55179 1.73135L8.70554 2.21041H9.21094L8.80224 2.50479L8.95604 2.98385L8.55174 2.68938L8.14308 2.9838L8.29688 2.50488L7.89259 2.21041H8.39359L8.55179 1.73135ZM11.3994 1.73135L11.5576 2.21041H12.0586L11.6499 2.50479L11.8081 2.98385L11.3994 2.68938L10.9951 2.9838L11.1489 2.50484L10.7402 2.21037H11.25L11.3994 1.73135ZM14.2515 1.73135L14.4053 2.21041H14.9107L14.502 2.50479L14.6558 2.98385L14.2515 2.68938L13.8428 2.9838L13.9966 2.50484L13.5923 2.21037H14.0933L14.2515 1.73135ZM1.42384 2.93998L1.58204 3.42776H2.08304L1.67869 3.72218L1.83254 4.2012L1.42384 3.90237L1.01954 4.2012L1.17334 3.71777L0.764679 3.4234H1.27444L1.42384 2.93998ZM4.2759 2.93998L4.42969 3.42326H4.93505L4.52635 3.71768L4.68019 4.19674L4.2759 3.89787L3.86719 4.1967L4.02099 3.71332L3.61669 3.4189H4.11769L4.2759 2.93998ZM7.12355 2.93998L7.28176 3.42335H7.77835L7.37405 3.71777L7.5278 4.19684L7.11915 3.89796L6.71485 4.19679L6.86865 3.71341L6.45994 3.41899H6.96535L7.12355 2.93998ZM9.97562 2.93998L10.1294 3.42335H10.6348L10.2261 3.71777L10.3843 4.19684L9.97557 3.89796L9.56691 4.19679L9.72512 3.71341L9.31641 3.41899H9.81741L9.97562 2.93998ZM12.8233 2.93998L12.9815 3.42335H13.4824L13.0781 3.71773L13.2319 4.19679L12.8232 3.89791L12.4189 4.19674L12.5728 3.71337L12.1685 3.41895H12.6694L12.8233 2.93998ZM15.6753 2.93998L15.8291 3.42335H16.3345L15.9258 3.71777L16.084 4.19684L15.6753 3.89796L15.2666 4.19679L15.4248 3.71341L15.0161 3.41899H15.5215L15.6753 2.93998ZM2.85207 4.15282L3.00587 4.63184H3.51123L3.10252 4.92621L3.25637 5.40963L2.85207 5.1108L2.44337 5.40523L2.59716 4.92626L2.19287 4.63184H2.69391L2.85207 4.15282ZM5.69973 4.15282L5.85793 4.63184H6.35888L5.95018 4.92621L6.10843 5.40963L5.69968 5.1108L5.29102 5.40523L5.44923 4.92626L5.04052 4.63184H5.54588L5.69973 4.15282ZM8.55179 4.15282L8.70554 4.63184H9.21094L8.80224 4.92621L8.95604 5.40963L8.55174 5.1108L8.14308 5.40523L8.29688 4.92626L7.89259 4.63184H8.39359L8.55179 4.15282ZM11.3994 4.15282L11.5576 4.63184H12.0586L11.6543 4.92621L11.8081 5.40963L11.3994 5.1108L10.9951 5.40523L11.1489 4.92626L10.7402 4.63184H11.25L11.3994 4.15282ZM14.2515 4.15282L14.4053 4.63184H14.9107L14.502 4.92621L14.6558 5.40963L14.2515 5.1108L13.8428 5.40523L13.9966 4.92626L13.5923 4.63184H14.0933L14.2515 4.15282ZM1.42384 5.36571L1.58204 5.84473H2.08304L1.67869 6.1391L1.83254 6.62252L1.42384 6.3237L1.01954 6.61812L1.17334 6.13915L0.764679 5.84473H1.27444L1.42384 5.36571ZM4.2759 5.36571L4.42969 5.84473H4.93505L4.52635 6.1391L4.68019 6.61816L4.2759 6.3237L3.86719 6.61812L4.02099 6.13915L3.61669 5.84473H4.11769L4.2759 5.36571ZM7.12355 5.36571L7.28176 5.84473H7.77835L7.37405 6.1391L7.5278 6.62252L7.11915 6.3237L6.71485 6.61812L6.86865 6.13915L6.45994 5.84473H6.96535L7.12355 5.36571ZM9.97562 5.36571L10.1294 5.84473H10.6348L10.2261 6.1391L10.3843 6.62252L9.97557 6.3237L9.56691 6.61812L9.72512 6.13915L9.31641 5.84473H9.81741L9.97562 5.36571ZM12.8233 5.36571L12.9815 5.84473H13.4824L13.0781 6.1391L13.2319 6.62252L12.8232 6.3237L12.4189 6.61812L12.5728 6.13915L12.1685 5.84473H12.6694L12.8233 5.36571ZM15.6753 5.36571L15.8291 5.84473H16.3345L15.9258 6.1391L16.084 6.62252L15.6753 6.3237L15.2666 6.61812L15.4248 6.13915L15.0161 5.84473H15.5215L15.6753 5.36571ZM2.85207 6.5786L3.00587 7.05762H3.51123L3.10252 7.35199L3.25637 7.83105L2.85207 7.53223L2.44337 7.83105L2.59716 7.34763L2.19287 7.05321H2.69391L2.85207 6.5786ZM5.69973 6.5786L5.85793 7.05762H6.35888L5.95018 7.35199L6.10843 7.83105L5.69968 7.53223L5.29102 7.83105L5.44923 7.34763L5.04052 7.05321H5.54588L5.69973 6.5786ZM8.55179 6.5786L8.70554 7.05762H9.21094L8.80224 7.35199L8.95604 7.83105L8.55174 7.53223L8.14308 7.83105L8.29688 7.34763L7.89259 7.05321H8.39359L8.55179 6.5786ZM11.3994 6.5786L11.5576 7.05762H12.0586L11.6543 7.35199L11.8081 7.83105L11.3994 7.53223L10.9951 7.83105L11.1489 7.34763L10.7402 7.05321H11.25L11.3994 6.5786ZM14.2515 6.5786L14.4053 7.05762H14.9107L14.502 7.35199L14.6558 7.83105L14.2515 7.53223L13.8428 7.83105L13.9966 7.34763L13.5923 7.05321H14.0933L14.2515 6.5786ZM1.42384 7.78709L1.58204 8.27051H2.08304L1.67869 8.56488L1.83254 9.03954L1.42384 8.74512L1.01954 9.03949L1.17334 8.56052L0.764679 8.2661H1.27444L1.42384 7.78709ZM4.2759 7.78709L4.42969 8.27051H4.93505L4.52635 8.56488L4.6846 9.03954L4.27585 8.74512L3.86719 9.03949L4.0254 8.56052L3.61669 8.2661H4.11769L4.2759 7.78709ZM7.12355 7.78709L7.28176 8.27051H7.77835L7.37405 8.56488L7.5278 9.03954L7.11915 8.74512L6.71485 9.03949L6.86865 8.56052L6.45994 8.2661H6.96535L7.12355 7.78709ZM9.97562 7.78709L10.1294 8.27051H10.6348L10.2261 8.56488L10.3843 9.03954L9.97557 8.74512L9.56691 9.03949L9.72512 8.56052L9.31641 8.2661H9.81741L9.97562 7.78709ZM12.8233 7.78709L12.9815 8.27051H13.4824L13.0781 8.56488L13.2319 9.03954L12.8232 8.74512L12.4189 9.03949L12.5728 8.56052L12.1685 8.2661H12.6694L12.8233 7.78709ZM15.6753 7.78709L15.8291 8.27051H16.3345L15.9258 8.56488L16.084 9.03954L15.6753 8.74512L15.2666 9.03949L15.4248 8.56052L15.0161 8.2661H15.5215L15.6753 7.78709ZM2.85207 8.99998L3.00587 9.47899H3.51123L3.10252 9.77341L3.25637 10.2568L2.85207 9.95801L2.44337 10.2524L2.59716 9.77341L2.19287 9.47899H2.69391L2.85207 8.99998ZM5.69973 8.99998L5.85793 9.47899H6.35888L5.95018 9.77341L6.10843 10.2568L5.69968 9.95801L5.29102 10.2524L5.44923 9.77341L5.04052 9.47899H5.54588L5.69973 8.99998ZM8.55179 8.99998L8.70554 9.47899H9.21094L8.80224 9.77341L8.95604 10.2568L8.55174 9.95801L8.14308 10.2524L8.29688 9.77341L7.89259 9.47899H8.39359L8.55179 8.99998ZM11.3994 8.99998L11.5576 9.47899H12.0586L11.6543 9.77341L11.8081 10.2568L11.3994 9.95801L10.9951 10.2524L11.1489 9.77341L10.7402 9.47899H11.25L11.3994 8.99998ZM14.2515 8.99998L14.4053 9.47899H14.9107L14.502 9.77341L14.6558 10.2568L14.2515 9.95801L13.8428 10.2524L13.9966 9.77341L13.5923 9.47899H14.0933L14.2515 8.99998ZM1.42384 10.2129L1.58204 10.6919H2.08304L1.67869 10.9863L1.83254 11.4653L1.42384 11.1709L1.01954 11.4653L1.17334 10.9819L0.764679 10.6875H1.27444L1.42384 10.2129ZM4.2759 10.2129L4.42969 10.6919H4.93505L4.52635 10.9863L4.6846 11.4653L4.27585 11.1709L3.86719 11.4653L4.0254 10.9819L3.61669 10.6875H4.11769L4.2759 10.2129ZM7.12355 10.2129L7.28176 10.6919H7.77835L7.38282 10.9863L7.53662 11.4653L7.12791 11.1709L6.72362 11.4653L6.87746 10.9819L6.46876 10.6875H6.97412L7.12355 10.2129ZM9.97562 10.2129L10.1294 10.6919H10.6348L10.2261 10.9863L10.3843 11.4653L9.97557 11.1709L9.56691 11.4653L9.72512 10.9819L9.31641 10.6875H9.81741L9.97562 10.2129ZM12.8233 10.2129L12.9815 10.6919H13.4824L13.0781 10.9863L13.2319 11.4653L12.8232 11.1709L12.4189 11.4653L12.5728 10.9819L12.1685 10.6875H12.6694L12.8233 10.2129ZM15.6753 10.2129L15.8291 10.6919H16.3345L15.9258 10.9863L16.084 11.4653L15.6753 11.1709L15.2666 11.4653L15.4248 10.9819L15.0161 10.6875H15.5215L15.6753 10.2129Z" fill="white"/>
</g>
<defs>
<clipPath id="clip0_439_164">
<rect width="30" height="22.5" fill="white"/>
</clipPath>
</defs>
</svg>
